<svg id="ITP-copilot_logo" data-name="ITP-copilot logo" xmlns="http://www.w3.org/2000/svg" xmlns:xlink="http://www.w3.org/1999/xlink" width="240.477" height="29" viewBox="0 0 240.477 29">
  <defs>
    <linearGradient id="linear-gradient" x1="1.055" y1="1.103" x2="0.09" y2="0.101" gradientUnits="objectBoundingBox">
      <stop offset="0" stop-color="#01adf6"/>
      <stop offset="0.526" stop-color="#840264"/>
      <stop offset="1" stop-color="#ce1d2c"/>
    </linearGradient>
  </defs>
  <g id="intime-copilot-B" transform="translate(177.218 -32)">
    <path id="Copilot" d="M7.94.2A6.967,6.967,0,0,1,5.16-.35,6.824,6.824,0,0,1,2.93-1.88,6.947,6.947,0,0,1,1.46-4.16,7.415,7.415,0,0,1,.94-6.94a7.469,7.469,0,0,1,.52-2.8,6.835,6.835,0,0,1,1.47-2.27,6.929,6.929,0,0,1,2.22-1.52,6.9,6.9,0,0,1,2.77-.55,6.937,6.937,0,0,1,2.88.56A7.383,7.383,0,0,1,13-12l-1.3,1.3a4.641,4.641,0,0,0-1.61-1.16,5.317,5.317,0,0,0-2.17-.42,5.123,5.123,0,0,0-2.02.39,4.7,4.7,0,0,0-1.6,1.11,5.035,5.035,0,0,0-1.05,1.7,6.012,6.012,0,0,0-.37,2.14A6.012,6.012,0,0,0,3.25-4.8,5.035,5.035,0,0,0,4.3-3.1,4.7,4.7,0,0,0,5.9-1.99a5.123,5.123,0,0,0,2.02.39,5.49,5.49,0,0,0,2.26-.43A4.729,4.729,0,0,0,11.8-3.2l1.3,1.28A6.888,6.888,0,0,1,10.85-.36,7.238,7.238,0,0,1,7.94.2ZM19.1.2a4.87,4.87,0,0,1-2.52-.66A4.928,4.928,0,0,1,14.8-2.25a4.923,4.923,0,0,1-.66-2.53,4.779,4.779,0,0,1,.66-2.49,4.977,4.977,0,0,1,1.78-1.77A4.87,4.87,0,0,1,19.1-9.7a4.943,4.943,0,0,1,2.51.65A4.85,4.85,0,0,1,23.4-7.28a4.832,4.832,0,0,1,.66,2.5,4.923,4.923,0,0,1-.66,2.53A4.9,4.9,0,0,1,21.61-.46,4.885,4.885,0,0,1,19.1.2Zm0-1.74a3.049,3.049,0,0,0,1.6-.42,2.991,2.991,0,0,0,1.1-1.15,3.418,3.418,0,0,0,.4-1.67,3.255,3.255,0,0,0-.41-1.64,3.035,3.035,0,0,0-1.1-1.13,3.053,3.053,0,0,0-1.59-.41,3.106,3.106,0,0,0-1.6.41,2.938,2.938,0,0,0-1.1,1.13A3.32,3.32,0,0,0,16-4.78a3.418,3.418,0,0,0,.4,1.67,2.991,2.991,0,0,0,1.1,1.15A3.049,3.049,0,0,0,19.1-1.54ZM31.08.2a4.181,4.181,0,0,1-1.95-.45A3.6,3.6,0,0,1,27.74-1.5a3.674,3.674,0,0,1-.58-1.82V-6.18a3.591,3.591,0,0,1,.59-1.83,3.7,3.7,0,0,1,1.4-1.24,4.138,4.138,0,0,1,1.93-.45,4.325,4.325,0,0,1,2.35.66,4.663,4.663,0,0,1,1.65,1.78,5.251,5.251,0,0,1,.6,2.52,5.251,5.251,0,0,1-.6,2.52A4.588,4.588,0,0,1,33.43-.45,4.374,4.374,0,0,1,31.08.2Zm-5,3.78V-9.5h1.8V-7l-.34,2.3.34,2.32V3.98Zm4.7-5.48a2.945,2.945,0,0,0,1.58-.42,3.041,3.041,0,0,0,1.08-1.15,3.461,3.461,0,0,0,.4-1.69,3.476,3.476,0,0,0-.4-1.68,2.947,2.947,0,0,0-1.08-1.15A2.962,2.962,0,0,0,30.8-8a3,3,0,0,0-1.58.41,2.808,2.808,0,0,0-1.06,1.15,3.67,3.67,0,0,0-.38,1.7,3.643,3.643,0,0,0,.37,1.67,2.8,2.8,0,0,0,1.06,1.15A2.959,2.959,0,0,0,30.78-1.5ZM37.74,0V-9.5h1.8V0Zm.9-11.4a1.092,1.092,0,0,1-.82-.33,1.144,1.144,0,0,1-.32-.83,1.119,1.119,0,0,1,.32-.81,1.092,1.092,0,0,1,.82-.33,1.092,1.092,0,0,1,.82.33,1.119,1.119,0,0,1,.32.81,1.144,1.144,0,0,1-.32.83A1.092,1.092,0,0,1,38.64-11.4ZM42.2,0V-14.28H44V0Zm8.78.2a4.87,4.87,0,0,1-2.52-.66,4.928,4.928,0,0,1-1.78-1.79,4.923,4.923,0,0,1-.66-2.53,4.779,4.779,0,0,1,.66-2.49,4.977,4.977,0,0,1,1.78-1.77,4.87,4.87,0,0,1,2.52-.66,4.943,4.943,0,0,1,2.51.65,4.85,4.85,0,0,1,1.79,1.77,4.832,4.832,0,0,1,.66,2.5,4.923,4.923,0,0,1-.66,2.53A4.9,4.9,0,0,1,53.49-.46,4.885,4.885,0,0,1,50.98.2Zm0-1.74a3.049,3.049,0,0,0,1.6-.42,2.991,2.991,0,0,0,1.1-1.15,3.418,3.418,0,0,0,.4-1.67,3.255,3.255,0,0,0-.41-1.64,3.035,3.035,0,0,0-1.1-1.13,3.053,3.053,0,0,0-1.59-.41,3.106,3.106,0,0,0-1.6.41,2.938,2.938,0,0,0-1.1,1.13,3.32,3.32,0,0,0-.4,1.64,3.418,3.418,0,0,0,.4,1.67,2.991,2.991,0,0,0,1.1,1.15A3.049,3.049,0,0,0,50.98-1.54ZM59.12,0V-13.48h1.8V0ZM56.78-7.86V-9.5h6.48v1.64Z" transform="translate(-0.001 54)" fill="#373737"/>
  </g>
  <g id="Group_188343" data-name="Group 188343" transform="translate(-0.001 0)">
    <g id="Group_188340" data-name="Group 188340" transform="translate(0.001 0)">
      <g id="Group_188117" data-name="Group 188117" transform="translate(0)">
        <g id="Group_188116" data-name="Group 188116">
          <g id="Group_188115" data-name="Group 188115">
            <g id="Group_188341" data-name="Group 188341">
              <g id="Group_188114" data-name="Group 188114">
                <path id="Path_171716" data-name="Path 171716" d="M103.585,39.288v5.2h-3.12a7.639,7.639,0,0,1-5.2-1.629Q93.4,41.231,93.4,37.537V29.582H90.962v-5.09H93.4V19.618h6.133v4.875h4.02v5.089H99.535v8.029a1.68,1.68,0,0,0,.43,1.287,2.1,2.1,0,0,0,1.434.394Zm6.486-16.878a3.717,3.717,0,0,1-2.63-.949,3.074,3.074,0,0,1-1.022-2.348,3.116,3.116,0,0,1,1.022-2.384,3.718,3.718,0,0,1,2.633-.949,3.67,3.67,0,0,1,2.6.949,3.116,3.116,0,0,1,1.022,2.384,3.077,3.077,0,0,1-1.022,2.348,3.669,3.669,0,0,1-2.6.953m3.049,2.079v20H107v-20Zm29.984-.216a7.917,7.917,0,0,1,5.936,2.258,8.594,8.594,0,0,1,2.205,6.272v11.68h-6.093V33.629a4.13,4.13,0,0,0-1.022-3,4.271,4.271,0,0,0-5.63,0,4.126,4.126,0,0,0-1.018,3V44.488H131.39V33.629a4.126,4.126,0,0,0-1.022-3,4.271,4.271,0,0,0-5.63,0,4.13,4.13,0,0,0-1.022,3V44.488h-6.132v-20h6.132V27a6.564,6.564,0,0,1,2.437-1.989,7.673,7.673,0,0,1,3.408-.734,8.292,8.292,0,0,1,4.034.967,6.939,6.939,0,0,1,2.78,2.76,8.054,8.054,0,0,1,2.833-2.688,7.658,7.658,0,0,1,3.909-1.041Zm31.307,9.887a15.583,15.583,0,0,1-.107,1.792H160.425a4.169,4.169,0,0,0,1.2,2.849,3.669,3.669,0,0,0,2.6.986,3.223,3.223,0,0,0,3.192-1.933h6.528a8.951,8.951,0,0,1-1.812,3.548,9.067,9.067,0,0,1-3.282,2.473,10.543,10.543,0,0,1-4.411.9,10.741,10.741,0,0,1-5.236-1.257,8.923,8.923,0,0,1-3.586-3.584,11.055,11.055,0,0,1-1.288-5.445,11.183,11.183,0,0,1,1.279-5.448,8.809,8.809,0,0,1,3.569-3.584,11.613,11.613,0,0,1,10.436-.033,8.753,8.753,0,0,1,3.532,3.48,10.55,10.55,0,0,1,1.273,5.265m-6.276-1.61a3.15,3.15,0,0,0-1.075-2.513,3.967,3.967,0,0,0-2.69-.932,3.885,3.885,0,0,0-2.6.9,3.979,3.979,0,0,0-1.309,2.543Z" transform="translate(-53.329 -15.777)" fill="#373737"/>
                <path id="Path_171717" data-name="Path 171717" d="M3.652,22.414a3.711,3.711,0,0,1-2.632-.953A3.077,3.077,0,0,1,0,19.113a3.119,3.119,0,0,1,1.021-2.384,3.711,3.711,0,0,1,2.632-.949,3.669,3.669,0,0,1,2.6.949,3.12,3.12,0,0,1,1.021,2.384,3.08,3.08,0,0,1-1.021,2.348,3.669,3.669,0,0,1-2.6.953M6.7,24.493v20H.573v-20Zm16.614-.218a7.25,7.25,0,0,1,5.6,2.275,8.883,8.883,0,0,1,2.1,6.254V44.488H24.923V33.629a4.389,4.389,0,0,0-1.039-3.119A3.64,3.64,0,0,0,21.091,29.4,3.64,3.64,0,0,0,18.3,30.51a4.393,4.393,0,0,0-1.039,3.118V44.487h-6.12v-20h6.124v2.649a6.46,6.46,0,0,1,2.511-2.1,7.968,7.968,0,0,1,3.546-.767" transform="translate(0.001 -15.777)" fill="#373737"/>
              </g>
              <g id="Group_188113" data-name="Group 188113" transform="translate(127.597 0)">
                <path id="Rectangle_68627" data-name="Rectangle 68627" d="M4.125,0H24.754a4.127,4.127,0,0,1,4.126,4.129V24.772A4.127,4.127,0,0,1,24.753,28.9H4.125A4.127,4.127,0,0,1,0,24.772V4.128A4.127,4.127,0,0,1,4.125,0Z" transform="translate(0 0)" fill="url(#linear-gradient)"/>
                <g id="Group_188112" data-name="Group 188112" transform="translate(3.713 5.375)">
                  <path id="Path_171721" data-name="Path 171721" d="M324.274,63.907v2.511h-1.715v-7h3.6a2.95,2.95,0,0,1,1.266.238,1.962,1.962,0,0,1,1.132,1.5,3.444,3.444,0,0,1,.063.635,2.1,2.1,0,0,1-.44,1.377,1.984,1.984,0,0,1-1.246.676,4.588,4.588,0,0,1-.732.055Zm0-1.52h1.809c.54,0,.811-.227.811-.685a.619.619,0,0,0-.509-.685,1.851,1.851,0,0,0-.3-.025h-1.809Z" transform="translate(-322.559 -48.248)" fill="#fff"/>
                  <path id="Path_171722" data-name="Path 171722" d="M347.15,59.418h3.781a2.277,2.277,0,0,1,1.589.514,1.972,1.972,0,0,1,.656,1.534,1.931,1.931,0,0,1-.736,1.555,2.3,2.3,0,0,1,.58,1.041q.055.207.156,2.352H351.49l-.061-1.32q-.078-.412-.133-.664a.911.911,0,0,0-.736-.683,1.587,1.587,0,0,0-.338-.035H348.8v2.7h-1.651Zm1.651,2.808h1.815c.371,0,.607-.111.7-.333a.6.6,0,0,0,.063-.269c0-.427-.255-.638-.762-.638H348.8Z" transform="translate(-340.225 -48.242)" fill="#fff"/>
                  <path id="Path_171723" data-name="Path 171723" d="M375.33,59.394a3.643,3.643,0,0,1,2.641.98,3.721,3.721,0,0,1,0,5.042,4.033,4.033,0,0,1-5.271,0,3.315,3.315,0,0,1-.986-2.517,3.368,3.368,0,0,1,1-2.541,3.615,3.615,0,0,1,2.616-.966Zm0,1.555a1.88,1.88,0,0,0-1.642.793,1.942,1.942,0,0,0-.358,1.159,1.974,1.974,0,0,0,.374,1.179,1.717,1.717,0,0,0,.993.683,2.269,2.269,0,0,0,.637.09,1.888,1.888,0,0,0,1.651-.792,2.058,2.058,0,0,0-.014-2.344,1.769,1.769,0,0,0-1-.689,2.529,2.529,0,0,0-.638-.082Z" transform="translate(-357.873 -48.226)" fill="#fff"/>
                  <g id="Group_188426" data-name="Group 188426" transform="translate(0.081)">
                    <path id="Path_171718" data-name="Path 171718" d="M353.844,25.353a2.318,2.318,0,0,0-4.208,0l-1.063-.493a3.489,3.489,0,0,1,6.335,0Z" transform="translate(-341.25 -21.962)" fill="#fff"/>
                    <path id="Path_171719" data-name="Path 171719" d="M326.875,28.367a4.319,4.319,0,1,1,4.321-4.32h0a4.318,4.318,0,0,1-4.318,4.318Zm0-7.467a3.143,3.143,0,1,0,2.222.922,3.143,3.143,0,0,0-2.222-.922" transform="translate(-322.558 -19.73)" fill="#fff"/>
                    <path id="Path_171719-2" data-name="Path 171719" d="M326.875,28.367a4.319,4.319,0,1,1,4.321-4.32h0a4.318,4.318,0,0,1-4.318,4.318Zm0-7.467a3.143,3.143,0,1,0,2.222.922,3.143,3.143,0,0,0-2.222-.922" transform="translate(-310.112 -19.73)" fill="#fff"/>
                  </g>
                </g>
              </g>
            </g>
          </g>
        </g>
      </g>
    </g>
  </g>
</svg>
